HIERARCHY
ROOT Hips
{
	OFFSET 0.000000 0.000000 0.000000 
	CHANNELS 6 Xposition Yposition Zposition Zrotation Yrotation Xrotation
	JOINT LeftUpLeg
	{
		OFFSET 1.363060 -1.794630 0.839290 
		CHANNELS 3 Zrotation Yrotation Xrotation
		JOINT LeftLeg
		{
			OFFSET 2.448110 -6.726130 0.000000 
			CHANNELS 3 Zrotation Yrotation Xrotation
			JOINT LeftFoot
			{
				OFFSET 2.562200 -7.039590 0.000000 
				CHANNELS 3 Zrotation Yrotation Xrotation
				JOINT LeftToeBase
				{
					OFFSET 0.157640 -0.433110 2.322550 
					CHANNELS 3 Zrotation Yrotation Xrotation
					End Site
					{
						OFFSET 0.000000 0.000000 0.000000 
					}
				}
			}
		}
	}
	JOINT RightUpLeg
	{
		OFFSET -1.305520 -1.794630 0.839290 
		CHANNELS 3 Zrotation Yrotation Xrotation
		JOINT RightLeg
		{
			OFFSET -2.542530 -6.985550 0.000000 
			CHANNELS 3 Zrotation Yrotation Xrotation
			JOINT RightFoot
			{
				OFFSET -2.568260 -7.056230 0.000000 
				CHANNELS 3 Zrotation Yrotation Xrotation
				JOINT RightToeBase
				{
					OFFSET -0.164730 -0.452590 2.363150 
					CHANNELS 3 Zrotation Yrotation Xrotation
					End Site
					{
						OFFSET 0.000000 0.000000 0.000000 
					}
				}
			}
		}
	}
	JOINT Spine
	{
		OFFSET 0.028270 2.035590 -0.193380 
		CHANNELS 3 Zrotation Yrotation Xrotation
		JOINT Spine1
		{
			OFFSET 0.056720 2.048850 -0.042750 
			CHANNELS 3 Zrotation Yrotation Xrotation
			JOINT Neck1
			{
				OFFSET -0.054170 1.746240 0.172020 
				CHANNELS 3 Zrotation Yrotation Xrotation
				JOINT Head
				{
					OFFSET 0.104070 1.761360 -0.123970 
					CHANNELS 3 Zrotation Yrotation Xrotation
					End Site
					{
						OFFSET 0.000000 0.000000 0.000000 
					}
				}
			}
			JOINT LeftArm
			{
				OFFSET 3.362410 1.200890 -0.311210 
				CHANNELS 3 Zrotation Yrotation Xrotation
				JOINT LeftForeArm
				{
					OFFSET 4.983000 -0.000000 -0.000000 
					CHANNELS 3 Zrotation Yrotation Xrotation
					JOINT LeftHand
					{
						OFFSET 3.483560 -0.000000 -0.000000 
						CHANNELS 3 Zrotation Yrotation Xrotation
						JOINT LeftHandIndex1
						{
							OFFSET 0.715260 -0.000000 -0.000000 
							CHANNELS 3 Zrotation Yrotation Xrotation
							End Site
							{
								OFFSET 0.000000 0.000000 0.000000 
							}
						}
					}
				}
			}
			JOINT RightArm
			{
				OFFSET -3.136600 1.374050 -0.404650 
				CHANNELS 3 Zrotation Yrotation Xrotation
				JOINT RightForeArm
				{
					OFFSET -5.241900 -0.000000 -0.000000 
					CHANNELS 3 Zrotation Yrotation Xrotation
					JOINT RightHand
					{
						OFFSET -3.444170 -0.000000 -0.000000 
						CHANNELS 3 Zrotation Yrotation Xrotation
						JOINT RightHandIndex1
						{
							OFFSET -0.622530 -0.000000 -0.000000 
							CHANNELS 3 Zrotation Yrotation Xrotation
							End Site
							{
								OFFSET 0.000000 0.000000 0.000000 
							}
						}
					}
				}
			}
		}
	}
}
MOTION
Frames: 15
Frame Time: 0.041667
3.474509 17.679224 -16.707579 0.769624 -7.693078 4.314663 -3.083388 -0.757364 -21.731926 1.588447 12.481609 34.090724 4.954637 -7.428380 13.896219 3.114300 10.877800 31.868900 15.012730 5.412259 -7.177478 -1.033548 -13.491731 34.898802 4.905775 -21.062743 -24.348088 -5.377800 -13.797100 42.430600 0.358343 2.696436 -4.371015 -4.815799 1.690898 2.738137 3.602964 -3.374112 10.209666 0.845800 -1.460000 1.140100 -77.384262 -0.178906 29.395589 10.478145 -17.537693 -2.389807 1.084761 -0.252473 -5.943125 -7.125000 0.000000 0.000000 81.159723 -5.879523 10.593404 -11.783466 17.226789 -3.649550 0.063518 4.458175 5.989015 7.125000 0.000000 0.000000 
3.476489 17.677869 -16.702471 1.216063 -7.719892 4.194286 -3.541814 -0.622960 -21.718232 1.546829 12.486711 34.072927 4.957542 -7.519224 14.042586 3.255100 11.097000 32.607600 14.375008 5.330892 -7.154775 -1.099088 -13.468911 35.071690 2.889376 -15.423608 -24.923580 -0.400700 4.064000 -11.256900 0.236390 2.885172 -4.434826 -5.028078 1.757627 2.329062 3.671131 -3.325831 10.100656 0.839800 -1.437600 0.911600 -77.161429 0.525775 31.565582 11.059484 -18.153746 -2.472921 0.876749 -0.243237 -8.754597 -7.125000 0.000000 0.000000 81.709703 -6.588178 10.605210 -11.803665 17.142618 -3.411084 0.282463 3.936557 7.005067 7.125000 0.000000 0.000000 
3.479304 17.679641 -16.706641 0.843094 -7.843538 4.383122 -3.160916 -0.765754 -21.743598 1.582982 12.478254 34.091920 4.950666 -7.439380 13.932845 3.265200 11.112400 32.660000 14.696781 5.650984 -7.215496 -1.124026 -13.461125 35.061100 1.499600 -11.813915 -25.737166 -0.135000 2.368400 -6.524800 0.234600 3.000670 -4.481092 -5.265041 1.805617 2.161611 3.667379 -3.141518 9.890959 0.804700 -1.346800 0.716500 -77.025908 0.617653 31.860941 11.071224 -18.087790 -2.427600 0.764607 -0.158428 -8.677609 -7.125000 0.000000 0.000000 81.956215 -6.901127 10.570215 -11.697725 17.059534 -3.418089 0.345341 4.027346 7.558762 7.125000 0.000000 0.000000 
3.479199 17.680475 -16.707579 0.708161 -7.842535 4.466511 -3.010004 -0.786949 -21.776510 1.589610 12.471265 34.088138 4.981485 -7.511585 13.992085 3.337200 11.221800 33.031800 14.823593 5.666044 -7.268235 -1.066893 -13.455808 35.045019 1.185637 -11.571917 -27.343487 -0.006900 -0.535500 1.471500 0.281792 2.910390 -4.454066 -5.183849 1.769919 2.320265 3.599495 -3.004293 9.871033 0.764100 -1.275600 0.777100 -77.154662 0.291884 31.597935 11.125432 -18.062174 -2.406533 0.648997 -0.046119 -8.520315 -7.125000 0.000000 0.000000 81.766849 -6.719673 11.247196 -11.568799 16.855589 -3.256470 0.571287 3.757551 8.272094 7.125000 0.000000 0.000000 
3.479408 17.681100 -16.708205 0.655047 -7.845508 4.520157 -2.948840 -0.784301 -21.819309 1.602069 12.480205 34.123833 4.996889 -7.558101 14.007066 3.360000 11.256200 33.148900 14.842225 5.699707 -7.280373 -1.067732 -13.445119 35.009572 0.529735 -10.179166 -28.372673 -0.002600 0.332000 -0.912100 0.295656 2.880366 -4.449169 -5.181241 1.756789 2.357551 3.571407 -2.878267 9.853366 0.736700 -1.211000 0.787200 -77.189598 0.171035 31.719868 11.231257 -18.120910 -2.413972 0.536867 0.063002 -8.748183 -7.125000 0.000000 0.000000 81.758911 -6.736802 11.670128 -11.479375 16.720202 -3.149989 0.732824 3.565095 8.987131 7.125000 0.000000 0.000000 
3.478887 17.681726 -16.709456 0.600292 -7.826108 4.569701 -2.882042 -0.778424 -21.856266 1.607331 12.480184 34.128034 5.001996 -7.564773 14.031331 3.356600 11.251000 33.131300 14.886817 5.738606 -7.293552 -1.054407 -13.441859 34.991697 0.134200 -9.520906 -29.367336 -0.001200 -0.222000 0.610100 0.321045 2.816037 -4.433996 -5.134292 1.729758 2.448014 3.541920 -2.762967 9.881442 0.715100 -1.151200 0.846400 -77.256179 -0.034308 31.668780 11.290790 -18.141051 -2.422718 0.455527 0.162366 -8.776189 -7.125000 0.000000 0.000000 81.689410 -6.670922 12.125367 -11.400254 16.603262 -3.066386 0.876008 3.407314 9.625410 7.125000 0.000000 0.000000 
3.477740 17.682039 -16.710915 0.583913 -7.793839 4.600469 -2.852021 -0.767512 -21.891057 1.609385 12.481419 34.130729 5.002446 -7.562789 14.057355 3.344300 11.232600 33.068500 14.906720 5.779195 -7.290346 -1.039350 -13.438072 34.976142 -0.115951 -9.179095 -30.134913 -0.010100 -0.650100 1.786500 0.344825 2.743827 -4.416648 -5.066456 1.699082 2.541791 3.527736 -2.670064 9.940172 0.707100 -1.102800 0.926300 -77.327279 -0.248662 31.616498 11.332285 -18.152917 -2.432075 0.398362 0.233928 -8.795116 -7.125000 0.000000 0.000000 81.616111 -6.593471 12.546606 -11.344992 16.514179 -2.995623 0.994489 3.254537 10.170853 7.125000 0.000000 0.000000 
3.476281 17.682039 -16.712687 0.584688 -7.762182 4.620916 -2.838634 -0.763139 -21.920048 1.609281 12.482033 34.130251 4.999337 -7.553566 14.088390 3.339200 11.224900 33.042000 14.919391 5.836602 -7.277059 -1.028354 -13.435294 34.965557 -0.263088 -9.000258 -30.620963 -0.020300 -0.919600 2.527600 0.364549 2.678943 -4.403363 -4.997420 1.670966 2.609627 3.534975 -2.598495 10.002501 0.714900 -1.065600 0.999500 -77.389442 -0.439259 31.590260 11.348904 -18.144094 -2.433142 0.362460 0.269805 -8.792796 -7.125000 0.000000 0.000000 81.562934 -6.536482 12.877033 -11.311780 16.457334 -2.948399 1.077882 3.142769 10.566180 7.125000 0.000000 0.000000 
3.474925 17.682039 -16.714772 0.576453 -7.745942 4.640736 -2.816981 -0.775180 -21.938867 1.608446 12.480643 34.125291 4.994984 -7.539123 14.118651 3.350700 11.242200 33.101000 14.946112 5.915369 -7.263431 -1.022558 -13.434725 34.961383 -0.338402 -8.907661 -30.861038 -0.029400 -1.107000 3.043400 0.379834 2.632885 -4.397111 -4.943781 1.650760 2.639055 3.557118 -2.540217 10.045252 0.732500 -1.035800 1.047200 -77.437016 -0.585857 31.607601 11.347309 -18.118992 -2.425539 0.341044 0.276542 -8.785339 -7.125000 0.000000 0.000000 81.538869 -6.514271 13.104746 -11.302520 16.430741 -2.915090 1.127878 3.050514 10.810165 7.125000 0.000000 0.000000 
3.473779 17.681830 -16.715919 0.581170 -7.740797 4.648324 -2.812010 -0.791798 -21.943429 1.606238 12.479400 34.120695 4.992356 -7.533149 14.146170 3.374800 11.278400 33.224500 14.956147 5.966846 -7.253235 -1.021650 -13.435452 34.963865 -0.344080 -8.906687 -30.889467 -0.032700 -1.166900 3.208100 0.388607 2.604696 -4.395126 -4.903323 1.637985 2.639936 3.590409 -2.503014 10.064390 0.758400 -1.017300 1.068000 -77.473143 -0.673725 31.666250 11.347846 -18.106317 -2.419458 0.334101 0.267562 -8.790991 -7.125000 0.000000 0.000000 81.541736 -6.522900 13.234405 -11.307174 16.428092 -2.901888 1.149003 3.006128 10.916950 7.125000 0.000000 0.000000 
3.472945 17.681622 -16.716648 0.597396 -7.744145 4.646749 -2.820279 -0.810344 -21.937560 1.603402 12.479257 34.117777 4.991621 -7.535197 14.167111 3.405600 11.324400 33.381900 14.947117 5.995428 -7.245219 -1.022353 -13.436747 34.969345 -0.342312 -8.914691 -30.894588 -0.034300 -1.195800 3.287700 0.392825 2.588315 -4.393645 -4.871143 1.630848 2.632683 3.628573 -2.484220 10.068379 0.788600 -1.008400 1.075900 -77.502134 -0.711297 31.750195 11.371682 -18.125000 -2.420012 0.326445 0.250257 -8.818446 -7.125000 0.000000 0.000000 81.557450 -6.534988 13.302227 -11.320880 16.438341 -2.898194 1.153899 2.983795 10.938122 7.125000 0.000000 0.000000 
3.472111 17.681309 -16.716857 0.617961 -7.752409 4.638453 -2.835473 -0.825687 -21.925880 1.601464 12.480347 34.117714 4.990062 -7.534506 14.169572 3.424900 11.353000 33.479900 14.928162 6.001953 -7.239338 -1.024423 -13.438376 34.975951 -0.337751 -8.921874 -30.883124 -0.034700 -1.202600 3.306400 0.392891 2.580499 -4.389271 -4.854962 1.628080 2.637053 3.664222 -2.474241 10.068223 0.816000 -1.003900 1.081600 -77.519138 -0.712942 31.851712 11.423736 -18.185867 -2.434406 0.323098 0.241014 -8.877593 -7.125000 0.000000 0.000000 81.588398 -6.536354 13.331841 -11.345147 16.464393 -2.906265 1.148123 2.987218 10.906834 7.125000 0.000000 0.000000 
3.471590 17.681100 -16.716440 0.632918 -7.761430 4.626863 -2.848916 -0.835827 -21.911155 1.601748 12.483026 34.122232 4.987364 -7.528890 14.151862 3.424500 11.352500 33.478000 14.909665 5.981235 -7.238319 -1.027045 -13.439868 34.981038 -0.331997 -8.923305 -30.852904 -0.034200 -1.193800 3.282200 0.389174 2.579924 -4.381456 -4.861427 1.628894 2.658248 3.689797 -2.466502 10.068267 0.833700 -1.000000 1.085600 -77.518594 -0.688872 31.968432 11.496955 -18.280164 -2.460502 0.324942 0.240630 -8.947699 -7.125000 0.000000 0.000000 81.641931 -6.533037 13.347900 -11.372272 16.495625 -2.918849 1.140135 3.000856 10.882440 7.125000 0.000000 0.000000 
3.470964 17.680788 -16.716127 0.635804 -7.771797 4.618212 -2.851016 -0.846709 -21.897154 1.604126 12.486163 34.130223 4.986077 -7.525870 14.124852 3.418000 11.342800 33.444800 14.902544 5.955414 -7.240462 -1.029072 -13.440951 34.982705 -0.328027 -8.917336 -30.818387 -0.033900 -1.187800 3.265800 0.383288 2.583972 -4.370811 -4.887600 1.632166 2.695873 3.705347 -2.460107 10.072628 0.841700 -0.996300 1.092700 -77.500616 -0.660017 32.097701 11.580233 -18.387932 -2.489922 0.326967 0.237528 -9.001920 -7.125000 0.000000 0.000000 81.713073 -6.516971 13.357282 -11.401388 16.529207 -2.933139 1.130085 3.018307 10.866040 7.125000 0.000000 0.000000 
3.470235 17.679954 -16.716023 0.636691 -7.784143 4.612367 -2.849514 -0.858902 -21.886544 1.607301 12.489978 34.140541 4.987562 -7.530940 14.096277 3.414400 11.337500 33.426700 14.899042 5.938193 -7.239946 -1.031165 -13.441448 34.981601 -0.333975 -8.886843 -30.790157 -0.035100 -1.208500 3.322800 0.376871 2.586827 -4.358301 -4.920085 1.634950 2.745073 3.713521 -2.452873 10.083970 0.842600 -0.991800 1.107900 -77.475363 -0.652740 32.221680 11.655132 -18.481616 -2.514335 0.326115 0.229284 -9.033401 -7.125000 0.000000 0.000000 81.790876 -6.487023 13.371444 -11.431768 16.561992 -2.945482 1.119807 3.029337 10.863378 7.125000 0.000000 0.000000 
